<?xml version="1.0" encoding="UTF-8"?><svg id="Ebene_1" xmlns="http://www.w3.org/2000/svg" viewBox="0 0 586.3 40.5"><defs><style>.cls-1{fill:#5d5d5c;}.cls-1,.cls-2{stroke-width:0px;}.cls-2{fill:#972e49;}</style></defs><g id="Farbe"><path class="cls-1" d="m12.5,36.7c4.8,0,7.8-3,7.8-7.1,0-5.4-4.2-7.4-8.5-9-4.4-1.6-10-4.1-10-10.5,0-5.4,4.2-9.2,10.1-9.2s9.5,3.9,11,7.5l-2.6,1.5c-1.3-2.8-3.7-6.1-8.6-6.1-4.4,0-6.8,2.5-6.8,5.9,0,4.1,3.1,6.4,9.1,8.6,4.2,1.5,9.4,4.4,9.4,11,0,6.1-4.8,10.3-10.9,10.3-6.5-.1-10.7-4.6-12.5-9.9l2.4-1.5c1.8,4.7,4.7,8.5,10.1,8.5Z"/><path class="cls-1" d="m116.6,1.4v34.8h15.5v2.8h-18.5V1.4h3Z"/><path class="cls-1" d="m144.1,1.4v25.5c0,6,3.3,9.9,9.1,9.9s9.1-3.9,9.1-9.9V1.4h3v25.5c0,7.5-4.5,12.7-12,12.7s-12-5.2-12-12.7V1.4h2.8Z"/><path class="cls-1" d="m179,39.1h-3L180.4,0l15,28.9L210.4,0l4.4,39.1h-3l-3.2-29.8-13.2,25.4-13.2-25.4-3.2,29.8Z"/><path class="cls-1" d="m242.6.9c10.7,0,18.7,8.2,18.7,19.3s-8,19.3-18.7,19.3-18.7-8.2-18.7-19.3c0-11,7.9-19.3,18.7-19.3Zm0,35.7c9,0,15.5-6.9,15.5-16.3s-6.5-16.3-15.5-16.3-15.6,6.9-15.6,16.3,6.5,16.3,15.6,16.3Z"/><path class="cls-1" d="m296.4,1.4h3.3l-16.6,39.1L266.5,1.4h3.3l13.3,32.2,13.3-32.2Z"/><path class="cls-1" d="m317.3,8.7c0-4.6,3.2-7.9,8.3-7.9s7.9,3.9,7.9,8c0,3.6-2.7,6.7-7.4,9.7l-.1.1,9.8,11.9c2.2-2.5,4.2-5.5,6.1-8.4l2.1,1.3c-2.1,3-4.3,6.2-6.6,9l5.5,6.7h-3.1l-4-4.8c-3.1,3.2-6.7,5.4-11.3,5.4-5.8,0-11-3.8-11-10.2s5.2-9.5,8.9-11.4l-.4-.5c-1.8-2.1-4.7-4.8-4.7-8.9Zm7.3,28.3c3.7,0,6.8-1.9,9.5-4.7l-10.3-12.5c-3.5,2-7.6,4.4-7.6,9.5s3.7,7.7,8.4,7.7Zm-.1-20.3c3.9-2.4,6.3-5.1,6.3-7.8s-1.7-5.5-5.2-5.5-5.5,2.3-5.5,5.4,2,5.1,3.9,7.3l.5.6Z"/><path class="cls-1" d="m368.4,1.4c7,0,12.3,4.2,12.3,11.1s-5.3,11.1-12.3,11.1h-5.9v15.4h-3V1.4h8.9Zm-5.9,2.8v16.7h5.9c5.5,0,9.3-2.9,9.3-8.3s-3.8-8.3-9.3-8.3h-5.9v-.1Z"/><path class="cls-1" d="m434.6,1.4c7.3,0,12.7,4,12.7,10.9,0,6.1-4.2,9.9-10.2,10.7l11.4,16h-3.7l-11-15.8h-4.8v15.8h-3V1.4h8.6Zm-5.6,2.7v16.6h5.6c5.8,0,9.8-2.8,9.8-8.3s-4.1-8.3-9.8-8.3c0,0-5.6,0-5.6,0Z"/><path class="cls-1" d="m454.4,1.4h22.7v2.8h-9.9v34.8h-3V4.2h-9.9V1.4h.1Z"/><path class="cls-1" d="m518,1.4v39.1l-28.6-32.8v31.4h-3V0l28.7,32.9V1.4h2.9Z"/><path class="cls-1" d="m551.3,1.4v2.8h-17.3v12.8h16.2v2.8h-16.2v16.4h17.3v2.8h-20.2V1.4h20.2Z"/><path class="cls-1" d="m572.4,1.4c7.3,0,12.7,4,12.7,10.9,0,6.1-4.2,9.9-10.2,10.7l11.4,16h-3.7l-11-15.8h-4.9v15.8h-3V1.4h8.7Zm-5.6,2.7v16.6h5.6c5.8,0,9.8-2.8,9.8-8.3s-4.1-8.3-9.8-8.3c0,0-5.6,0-5.6,0Z"/><rect class="cls-2" x="44.6" y="14.9" width="7.3" height="7.3"/><rect class="cls-1" x="59.3" y="1.4" width="3" height="37.6"/><rect class="cls-1" x="34.4" y="1.4" width="3" height="37.6"/><polygon class="cls-1" points="88 0 71.4 39.1 74.7 39.1 88 6.8 101.2 39.1 104.6 39.1 88 0"/><polygon class="cls-1" points="400.4 0 383.8 39.1 387.1 39.1 400.4 6.8 413.7 39.1 417 39.1 400.4 0"/></g></svg>